<?xml version="1.0" encoding="utf-8"?>
<!-- Generator: Adobe Illustrator 25.4.7, SVG Export Plug-In . SVG Version: 6.00 Build 0)  -->
<svg version="1.1" id="圖層_1" xmlns="http://www.w3.org/2000/svg" xmlns:xlink="http://www.w3.org/1999/xlink" x="0px" y="0px"
	 viewBox="0 0 24 24" style="enable-background:new 0 0 24 24;" xml:space="preserve">
<style type="text/css">
	.st0{fill:#E42312;}
</style>
<path class="st0" d="M7.7,2.3c-3,0-5.4,2.4-5.4,5.4v8.6c0,3,2.4,5.4,5.4,5.4h8.6c3,0,5.4-2.4,5.4-5.4V7.7c0-3-2.4-5.4-5.4-5.4H7.7z
	 M7.7,4.5h8.6c1.8,0,3.2,1.4,3.2,3.2v8.6c0,1.8-1.4,3.2-3.2,3.2H7.7c-1.8,0-3.2-1.4-3.2-3.2V7.7C4.5,5.9,5.9,4.5,7.7,4.5z M17.4,5.6
	c-0.6,0-1.1,0.5-1.1,1.1s0.5,1.1,1.1,1.1c0.6,0,1.1-0.5,1.1-1.1S18,5.6,17.4,5.6z M12,6.6C9,6.6,6.6,9,6.6,12S9,17.4,12,17.4
	s5.4-2.4,5.4-5.4S15,6.6,12,6.6z M12,8.8c1.8,0,3.2,1.4,3.2,3.2s-1.4,3.2-3.2,3.2S8.8,13.8,8.8,12S10.2,8.8,12,8.8z"/>
</svg>
