<svg width="24" height="25" viewBox="0 0 24 25" fill="none" xmlns="http://www.w3.org/2000/svg">
<g clip-path="url(#clip0_14_780)">
<path d="M12.28 0.5C7.73277 0.5 4 4.17688 4 8.65599C4 13.202 5.62884 15.0738 7.05408 17.2131C8.7508 19.8872 11.9406 23.8315 12.28 23.8315C12.6193 23.8315 16.2163 19.2855 17.6416 17.0794C18.9311 15.007 20.5599 13.0014 20.5599 8.65599C20.5599 4.17688 16.8271 0.5 12.28 0.5ZM12.28 11.3301C10.5832 11.3301 9.22587 9.99304 9.22587 8.32173C9.22587 6.65042 10.5832 5.31337 12.28 5.31337C13.9767 5.31337 15.334 6.65042 15.334 8.32173C15.334 9.99304 13.9767 11.3301 12.28 11.3301Z" fill="white"/>
</g>
<defs>
<clipPath id="clip0_14_780">
<rect width="24" height="24" fill="white" transform="translate(0 0.5)"/>
</clipPath>
</defs>
</svg>
