<?xml version="1.0" encoding="utf-8"?>
<!-- Generator: Adobe Illustrator 25.4.7, SVG Export Plug-In . SVG Version: 6.00 Build 0)  -->
<svg version="1.1" id="圖層_1" xmlns="http://www.w3.org/2000/svg" xmlns:xlink="http://www.w3.org/1999/xlink" x="0px" y="0px"
	 viewBox="0 0 24 24" style="enable-background:new 0 0 24 24;" xml:space="preserve">
<style type="text/css">
	.st0{fill:#E42312;}
</style>
<path class="st0" d="M20.1,2.2H3.9C3,2.2,2.2,3,2.2,3.9v16.1c0,1,0.8,1.8,1.8,1.8h16.1c1,0,1.8-0.8,1.8-1.8V3.9
	C21.8,3,21,2.2,20.1,2.2z M8.4,18.3H5.7V9.8h2.6V18.3z M7,8.6C6.2,8.6,5.5,7.9,5.5,7S6.2,5.5,7,5.5c0.8,0,1.5,0.7,1.5,1.5
	C8.6,7.9,7.9,8.6,7,8.6z M18.3,18.3h-2.6v-4.1c0-1,0-2.3-1.4-2.3c-1.4,0-1.6,1.1-1.6,2.2v4.2H10V9.8h2.5v1.2h0
	c0.4-0.7,1.2-1.4,2.5-1.4c2.7,0,3.2,1.8,3.2,4C18.3,13.6,18.3,18.3,18.3,18.3z"/>
</svg>
