<?xml version="1.0" encoding="utf-8"?>
<!-- Generator: Adobe Illustrator 25.4.7, SVG Export Plug-In . SVG Version: 6.00 Build 0)  -->
<svg version="1.1" id="圖層_1" xmlns="http://www.w3.org/2000/svg" xmlns:xlink="http://www.w3.org/1999/xlink" x="0px" y="0px"
	 viewBox="0 0 24 24" style="enable-background:new 0 0 24 24;" xml:space="preserve">
<style type="text/css">
	.st0{fill:#E42312;}
</style>
<path class="st0" d="M12.3,1.3v14.8c0,2-1.8,3.1-3,3.1c-1,0-3.1-0.8-3.1-3.1c0-2.5,2-3.1,3.2-3.1c0.7,0,0.9,0.1,0.9,0.1v-4
	c0,0-0.5-0.1-1.1-0.1c-4,0-6.9,3.3-6.9,7c0,3.2,2.5,7,7,7c4.8,0,7-4,7-7V8.8c0,0,2.1,1.5,5,1.5V6.5c-3.3-0.2-5.1-2.4-5.2-5.2H12.3z"
	/>
</svg>
