<?xml version="1.0" encoding="utf-8"?>
<!-- Generator: Adobe Illustrator 25.4.7, SVG Export Plug-In . SVG Version: 6.00 Build 0)  -->
<svg version="1.1" id="圖層_1" xmlns="http://www.w3.org/2000/svg" xmlns:xlink="http://www.w3.org/1999/xlink" x="0px" y="0px"
	 viewBox="0 0 24 24" style="enable-background:new 0 0 24 24;" xml:space="preserve">
<style type="text/css">
	.st0{fill:#E42312;}
</style>
<path class="st0" d="M22.3,6.8c-0.2-0.8-1-1.4-1.9-1.6C18.7,4.8,12,4.8,12,4.8s-6.7,0-8.4,0.4C2.7,5.4,1.9,6,1.7,6.8
	C1.2,8.2,1.2,12,1.2,12s0,3.8,0.5,5.2c0.2,0.8,1,1.4,1.9,1.6c1.7,0.4,8.4,0.4,8.4,0.4s6.7,0,8.4-0.4c0.9-0.2,1.7-0.8,1.9-1.6
	c0.5-1.4,0.5-5.2,0.5-5.2S22.8,8.2,22.3,6.8z M10,14.6V9.4C10,9,10.4,8.8,10.8,9l4.5,2.6c0.3,0.2,0.3,0.7,0,0.9L10.8,15
	C10.4,15.2,10,15,10,14.6z"/>
</svg>
